# xmcd
#
# Track frame offsets:
# 150
# 12134
# 30276
# 42569
# 61034
# 73686
# 90254
# 106017
# 119993
# 141295
# 150222
# 160985
#
# Disc length: 2334 seconds
#
# Revision: 1
# Processed by: cddbd v1.5.2PL0 Copyright (c) Steve Scherf et al.
# Submitted via: id32freedb.pl v1.00
#
DISCID=8e091c0c
DTITLE=Chris Coole - Old Dog
DYEAR=2009
DGENRE=Country
TTITLE0=Old Dog
TTITLE1=The Bottle Got the Best of Me
TTITLE2=Hell to Pay
TTITLE3=Cole Younger
TTITLE4=The Hangman's Reel
TTITLE5=Daniel and the Sacred Harp
TTITLE6=Six Days on the Road
TTITLE7=$100
TTITLE8=Wasn't That Fine?
TTITLE9=Wild Boar
TTITLE10=Wish We Had Our Time Again
TTITLE11=Camp Meeting on the 4th of July
EXTD=http://chriscoole.com/
EXTT0=
EXTT1=
EXTT2=
EXTT3=
EXTT4=
EXTT5=
EXTT6=
EXTT7=
EXTT8=
EXTT9=
EXTT10=
EXTT11=
PLAYORDER=
